<svg width="50" height="22" viewBox="0 0 50 22" fill="none" xmlns="http://www.w3.org/2000/svg">
<path d="M4.58327 11.9301L10.8863 18.8423C11.2344 19.2241 11.2344 19.8082 10.8863 20.1899L10.4161 20.7055C10.0195 21.1405 9.33488 21.1405 8.93828 20.7055L0.261078 11.1897C-0.0870285 10.8079 -0.0870285 10.2238 0.261078 9.84207L8.93828 0.326205C9.33488 -0.108735 10.0195 -0.108735 10.4161 0.326206L10.8863 0.841816C11.2344 1.22357 11.2344 1.80765 10.8863 2.18941L4.58327 9.10162L48.6467 9.10162C49.199 9.10162 49.6467 9.54934 49.6467 10.1016V10.9301C49.6467 11.4824 49.199 11.9301 48.6467 11.9301L4.58327 11.9301Z" fill="#E15544"/>
</svg>
