<?xml version="1.0" encoding="UTF-8" standalone="no"?>
<!-- Created with Inkscape (http://www.inkscape.org/) -->

<svg
   width="8.8139324mm"
   height="13.538515mm"
   viewBox="0 0 8.8139324 13.538515"
   version="1.1"
   id="svg1"
   xml:space="preserve"
   inkscape:version="1.4.3 (0d15f75, 2025-12-25)"
   sodipodi:docname="Zeichnung.svg"
   xmlns:inkscape="http://www.inkscape.org/namespaces/inkscape"
   xmlns:sodipodi="http://sodipodi.sourceforge.net/DTD/sodipodi-0.dtd"
   xmlns="http://www.w3.org/2000/svg"
   xmlns:svg="http://www.w3.org/2000/svg"><sodipodi:namedview
     id="namedview1"
     pagecolor="#505050"
     bordercolor="#eeeeee"
     borderopacity="1"
     inkscape:showpageshadow="0"
     inkscape:pageopacity="0"
     inkscape:pagecheckerboard="0"
     inkscape:deskcolor="#505050"
     inkscape:document-units="mm"
     inkscape:zoom="2.0535659"
     inkscape:cx="397.84456"
     inkscape:cy="597.74075"
     inkscape:window-width="1920"
     inkscape:window-height="1017"
     inkscape:window-x="1912"
     inkscape:window-y="-8"
     inkscape:window-maximized="1"
     inkscape:current-layer="layer1"><inkscape:page
       x="0"
       y="0"
       width="8.8139324"
       height="13.538515"
       id="page2"
       margin="0"
       bleed="0" /></sodipodi:namedview><defs
     id="defs1" /><g
     inkscape:label="Ebene 1"
     inkscape:groupmode="layer"
     id="layer1"
     transform="translate(-101.01914,-136.72755)"><g
       style="fill:none"
       id="g2"
       transform="matrix(0.26458333,0,0,0.26458333,101.01914,136.72756)"><path
         d="M 0,17.0423 C 0,25.2266 9.33767,35.1965 16.7174,41 23.1935,35.6429 32.6064,27.0866 33.2842,17.0423 33.796,9.45643 27.3352,-0.219418 16.7174,0.00379216 3.99109,0.271327 0,10.2715 0,17.0423 Z"
         fill="#02f4bf"
         id="path1-0" /><path
         d="m 20.5319,15.1473 c -0.0677,2.2014 -1.8232,3.935 -3.921,3.8721 -2.0978,-0.0629 -3.7436,-1.8986 -3.6758,-4.1 0.0677,-2.2014 1.8233,-3.9351 3.9211,-3.8721 2.0978,0.0629 3.7435,1.8985 3.6757,4.1 z"
         fill="#e15544"
         id="path2-9" /></g><g
       style="fill:none"
       id="g3"
       transform="matrix(0.26458333,0,0,0.26458333,102.64877,147.88476)"><path
         d="m 16.9398,1.00024 c 6.8175,3.65218 1.1674,7 -6.3631,7 -7.53052,0 -13.18065,-3.65217 -6.8176,-7"
         stroke="#02f4bf"
         stroke-width="2"
         stroke-linecap="round"
         id="path1" /></g></g></svg>
